
nColumns=19
nRows=56
DataType=double
version=3
OpenSimVersion=4.4-2022-10-11-798caa840
endheader
time	ground_force_calcn_r_vx	ground_force_calcn_r_vy	ground_force_calcn_r_vz	ground_force_calcn_r_px	ground_force_calcn_r_py	ground_force_calcn_r_pz	ground_force_calcn_r_mx	ground_force_calcn_r_my	ground_force_calcn_r_mz	ground_force_calcn_l_vx	ground_force_calcn_l_vy	ground_force_calcn_l_vz	ground_force_calcn_l_px	ground_force_calcn_l_py	ground_force_calcn_l_pz	ground_force_calcn_l_mx	ground_force_calcn_l_my	ground_force_calcn_l_mz
4	-26.344	644.3200000000001	-63.8564	-0.239209	0	-0.333762	0.250301	-6.12183	0.606714	2.81454	563.6660000000001	48.2638	-0.261745	0	-0.843221	0.008893730000000001	1.78114	0.15251
4.01	-25.6199	643.586	-65.00109999999999	-0.239735	0	-0.333884	0.231664	-5.81953	0.587763	1.95492	562.933	49.8121	-0.261459	0	-0.843617	0.0060794	1.75061	0.154906
4.02	-24.4577	641.769	-66.00239999999999	-0.240461	0	-0.334075	0.208873	-5.48082	0.563673	1.30546	561.909	51.5116	-0.261352	0	-0.8440029999999999	0.00395658	1.70303	0.156121
4.03	-22.8753	638.665	-66.8189	-0.241375	0	-0.33433	0.183146	-5.11334	0.534972	0.876757	560.535	53.3463	-0.261422	0	-0.844378	0.00256868	1.64223	0.156292
4.04	-20.893	634.096	-67.4091	-0.242469	0	-0.334642	0.155705	-4.72562	0.502368	0.689438	558.752	55.2944	-0.261671	0	-0.844741	0.00193978	1.57208	0.155574
4.05	-18.5329	627.931	-67.73569999999999	-0.243733	0	-0.335001	0.127697	-4.32665	0.466721	0.769615	556.505	57.3291	-0.262097	0	-0.84509	0.0020693	1.4963	0.154143
4.06	-15.8223	620.093	-67.77119999999999	-0.245157	0	-0.335402	0.100158	-3.92529	0.429004	1.13926	553.747	59.42	-0.262699	0	-0.845426	0.00291765	1.41815	0.152175
4.07	-12.7969	610.5549999999999	-67.50060000000001	-0.246724	0	-0.335835	0.07398299999999999	-3.52981	0.390243	1.80619	550.437	61.5339	-0.263465	0	-0.845745	0.00439882	1.34054	0.14986
4.08	-9.499879999999999	599.34	-66.9213	-0.248421	0	-0.336294	0.0498909	-3.14757	0.351453	2.76104	546.537	63.6342	-0.264375	0	-0.846052	0.00639679	1.26622	0.147428
4.09	-5.98152	586.519	-66.0433	-0.250227	0	-0.336768	0.0284029	-2.78505	0.313603	3.98064	542.023	65.679	-0.265405	0	-0.846346	0.00879725	1.19788	0.145151
4.1	-2.29995	572.21	-64.88890000000001	-0.252124	0	-0.337246	0.00983975	-2.44806	0.277611	5.43327	536.883	67.62309999999999	-0.266527	0	-0.846629	0.0115179	1.13813	0.143353
4.11	1.47785	556.573	-63.4923	-0.254088	0	-0.337718	-0.00568714	-2.14183	0.244334	7.08213	531.116	69.4196	-0.267714	0	-0.846903	0.0145282	1.08952	0.142406
4.12	5.27693	539.801	-61.9011	-0.256096	0	-0.338168	-0.0182892	-1.87088	0.214541	8.885479999999999	524.72	71.0236	-0.268939	0	-0.847168	0.0178578	1.05457	0.142741
4.13	9.0176	522.128	-60.1769	-0.25812	0	-0.33858	-0.0283033	-1.63879	0.188876	10.7962	517.702	72.39709999999999	-0.270168	0	-0.847427	0.0215947	1.03551	0.144809
4.14	12.6226	503.822	-58.3933	-0.260133	0	-0.338938	-0.0362712	-1.44774	0.167794	12.7595	510.073	73.51390000000001	-0.271366	0	-0.8476860000000001	0.0258701	1.03418	0.149051
4.15	16.0237	485.175	-56.6283	-0.262113	0	-0.339225	-0.0428796	-1.29833	0.151538	14.7108	501.854	74.3621	-0.272492	0	-0.847951	0.0308337	1.05188	0.155863
4.16	19.1651	466.502	-54.9543	-0.264043	0	-0.339428	-0.0488662	-1.18946	0.14012	16.5807	493.078	74.94459999999999	-0.273504	0	-0.848233	0.0366275	1.08923	0.165556
4.17	22.0054	448.122	-53.4312	-0.26591	0	-0.339535	-0.0549146	-1.11829	0.133338	18.3013	483.793	75.276	-0.274362	0	-0.848537	0.0433575	1.14615	0.178336
4.18	24.5173	430.35	-52.1028	-0.267711	0	-0.339541	-0.0615586	-1.08053	0.130821	19.8133	474.057	75.3758	-0.275034	0	-0.848869	0.0510671	1.22184	0.194275
4.19	26.6827	413.471	-50.9959	-0.26944	0	-0.339444	-0.0690964	-1.07071	0.132057	21.0718	463.94	75.2623	-0.275499	0	-0.84923	0.0597163	1.31478	0.213289
4.2	28.4866	397.716	-50.1207	-0.27109	0	-0.339248	-0.0775477	-1.08268	0.136441	22.0486	453.515	74.9487	-0.275753	0	-0.849612	0.0691722	1.42279	0.235133
4.21	29.9127	383.242	-49.4705	-0.272647	0	-0.338962	-0.0866543	-1.11022	0.143312	22.7306	442.86	74.4408	-0.275799	0	-0.850007	0.0792093	1.54324	0.259404
4.22	30.946	370.111	-49.0191	-0.274092	0	-0.3386	-0.0959322	-1.14734	0.151958	23.1166	432.043	73.7351	-0.275651	0	-0.850399	0.0895133	1.67298	0.285521
4.23	31.5815	358.293	-48.7219	-0.275409	0	-0.338182	-0.104773	-1.18865	0.161637	23.2133	421.121	72.8199	-0.275329	0	-0.8507749999999999	0.09967479999999999	1.80824	0.312679
4.24	31.8283	347.68	-48.5203	-0.276584	0	-0.337731	-0.112551	-1.22946	0.171576	23.0312	410.147	71.68049999999999	-0.274853	0	-0.851116	0.10918	1.9443	0.339801
4.25	31.7092	338.119	-48.3491	-0.277609	0	-0.337275	-0.118698	-1.26569	0.180987	22.5821	399.17	70.306	-0.274241	0	-0.851413	0.117431	2.07576	0.365604
4.26	31.2562	329.436	-48.1457	-0.278477	0	-0.336835	-0.12276	-1.29387	0.189094	21.8796	388.236	68.693	-0.273503	0	-0.851654	0.123817	2.19704	0.388735
4.27	30.5043	321.458	-47.8578	-0.279184	0	-0.336429	-0.124409	-1.31104	0.195184	20.9388	377.387	66.8456	-0.272645	0	-0.851835	0.127774	2.3029	0.407907
4.28	29.4881	314.028	-47.448	-0.279722	0	-0.336073	-0.123454	-1.3147	0.198644	19.7759	366.655	64.77419999999999	-0.271662	0	-0.851958	0.128864	2.38919	0.42208
4.29	28.2454	307.012	-46.8941	-0.280089	0	-0.335774	-0.119862	-1.30284	0.199	18.4104	356.043	62.4952	-0.270552	0	-0.852025	0.126853	2.45323	0.430608
4.3	26.8204	300.3	-46.1877	-0.28029	0	-0.335542	-0.113793	-1.2741	0.195964	16.8709	345.531	60.0344	-0.269309	0	-0.852044	0.121769	2.49393	0.433309
4.31	25.2648	293.819	-45.3307	-0.280337	0	-0.335382	-0.105587	-1.22793	0.189446	15.1998	335.088	57.4283	-0.267937	0	-0.852023	0.113935	2.51175	0.430471
4.32	23.6364	287.542	-44.3343	-0.280246	0	-0.335296	-0.0957201	-1.16446	0.17954	13.4517	324.689	54.7241	-0.266441	0	-0.851975	0.103923	2.50843	0.422779
4.33	21.9956	281.483	-43.2204	-0.280031	0	-0.335286	-0.084753	-1.0846	0.166536	11.6835	314.336	51.9795	-0.264833	0	-0.851913	0.09242209999999999	2.48655	0.411182
4.34	20.3949	275.695	-42.0225	-0.279704	0	-0.335346	-0.0732594	-0.990308	0.150947	9.94544	304.068	49.2605	-0.263126	0	-0.8518559999999999	0.08010680000000001	2.44916	0.396774
4.35	18.8704	270.251	-40.781	-0.279265	0	-0.335468	-0.061758	-0.884463	0.133466	8.277469999999999	293.957	46.6355	-0.261332	0	-0.8518210000000001	0.0675664	2.39948	0.380671
4.36	17.4431	265.224	-39.5372	-0.278708	0	-0.335639	-0.0506798	-0.770593	0.114873	6.70952	284.093	44.1675	-0.259463	0	-0.8518289999999999	0.0552791	2.34061	0.363892
4.37	16.1261	260.689	-38.3316	-0.278025	0	-0.335841	-0.0403711	-0.652625	0.09596150000000001	5.26357	274.571	41.9069	-0.257527	0	-0.851898	0.0436203	2.27542	0.347291
4.38	14.9273	256.732	-37.2032	-0.277204	0	-0.336058	-0.0310883	-0.534683	0.0774813	3.95588	265.474	39.8881	-0.255534	0	-0.852042	0.0328772	2.20635	0.331509
4.39	13.8463	253.454	-36.1892	-0.276224	0	-0.33627	-0.0229868	-0.42077	0.0600792	2.79705	256.879	38.1306	-0.253493	0	-0.8522729999999999	0.023251	2.13535	0.316967
4.4	12.8739	250.965	-35.3231	-0.27506	0	-0.336458	-0.0161378	-0.314592	0.0442785	1.78906	248.869	36.6428	-0.25141	0	-0.852596	0.0148354	2.0637	0.303853
4.41	11.9947	249.365	-34.6331	-0.273688	0	-0.336604	-0.0105623	-0.219586	0.0304973	0.923911	241.553	35.4232	-0.249295	0	-0.853006	0.00761909	1.99198	0.29212
4.42	11.189	248.738	-34.1417	-0.27208	0	-0.336692	-0.00624321	-0.13879	0.0190503	0.186248	235.061	34.4601	-0.247159	0	-0.853491	0.0015215	1.92026	0.281512
4.43	10.4338	249.149	-33.8651	-0.270215	0	-0.336709	-0.00312043	-0.0745127	0.010128	-0.442668	229.526	33.7304	-0.245022	0	-0.854027	-0.00356483	1.84839	0.271632
4.44	9.70332	250.645	-33.8143	-0.268073	0	-0.336646	-0.00109018	-0.0281603	0.00379907	-0.981152	225.078	33.2002	-0.242905	0	-0.854581	-0.00774306	1.77627	0.262009
4.45	8.967359999999999	253.259	-33.9951	-0.265641	0	-0.336499	-3.92544e-06	-0.000110863	1.48813e-05	-1.44462	221.826	32.8276	-0.240839	0	-0.855113	-0.0110982	1.70416	0.252196
4.46	8.187799999999999	257.01	-34.4081	-0.262904	0	-0.336264	0.000333137	0.010457	-0.00139996	-1.84558	219.859	32.5693	-0.238851	0	-0.855581	-0.0137066	1.63283	0.241883
4.47	7.31764	261.895	-35.0464	-0.259854	0	-0.335947	0.000152914	0.00547272	-0.0007323539999999999	-2.19529	219.241	32.3863	-0.236962	0	-0.855951	-0.0156564	1.56358	0.230972
4.48	6.30792	267.881	-35.8928	-0.256492	0	-0.335551	-0.000287954	-0.0122287	0.0016385	-2.50656	220.012	32.2488	-0.23518	0	-0.856197	-0.0170705	1.49836	0.219625
4.49	5.11681	274.899	-36.9176	-0.252837	0	-0.335089	-0.000731133	-0.03928	0.00527511	-2.79655	222.182	32.141	-0.23349	0	-0.856314	-0.018119	1.43953	0.208244
4.5	3.71624	282.843	-38.0814	-0.248922	0	-0.334575	-0.000947438	-0.0721094	0.009708649999999999	-3.08807	225.732	32.066	-0.231854	0	-0.856313	-0.019011	1.38967	0.197406
4.51	2.09486	291.571	-39.3404	-0.244795	0	-0.334023	-0.000770684	-0.107267	0.014473	-3.40795	230.61	32.0472	-0.230224	0	-0.856225	-0.019968	1.3512	0.187772
4.52	0.261314	300.909	-40.6525	-0.240512	0	-0.333448	-0.000123263	-0.141939	0.0191759	-3.78425	236.725	32.1259	-0.22853	0	-0.8560990000000001	-0.0212005	1.3262	0.179979
4.53	-1.75441	310.654	-41.9804	-0.236133	0	-0.33286	0.000984389	-0.174306	0.023555	-4.24416	243.95	32.3561	-0.226707	0	-0.855983	-0.0228963	1.31606	0.174554
4.54	-3.90368	320.584	-43.2935	-0.231718	0	-0.33227	0.00247801	-0.203503	0.0274823	-4.81298	252.127	32.795	-0.224692	0	-0.855926	-0.0252205	1.32117	0.171849
4.55	-6.12454	330.473	-44.5678	-0.227316	0	-0.331682	0.00425298	-0.229486	0.0309486	-5.51414	261.08	33.4922	-0.222434	0	-0.855967	-0.0283198	1.34087	0.172011
